<svg xmlns="http://www.w3.org/2000/svg" xmlns:xlink="http://www.w3.org/1999/xlink" width="40" zoomAndPan="magnify" viewBox="0 0 30 30.000001" height="40" preserveAspectRatio="xMidYMid meet" version="1.0"><path fill="#ffffff" d="M 25.957031 24.339844 L 25.957031 22.425781 C 25.957031 22.347656 25.941406 22.273438 25.90625 22.207031 L 24.0625 18.660156 C 24.214844 18.445312 24.292969 18.203125 24.292969 17.9375 L 24.292969 11.070312 C 24.292969 10.804688 24.214844 10.566406 24.0625 10.347656 L 25.90625 6.796875 C 25.941406 6.726562 25.957031 6.652344 25.957031 6.570312 L 25.957031 4.65625 C 26.144531 4.621094 26.328125 4.558594 26.503906 4.472656 C 26.675781 4.390625 26.839844 4.285156 26.988281 4.164062 C 27.136719 4.039062 27.269531 3.898438 27.386719 3.742188 C 27.5 3.585938 27.59375 3.417969 27.667969 3.242188 C 27.742188 3.0625 27.792969 2.875 27.820312 2.683594 C 27.847656 2.492188 27.851562 2.300781 27.832031 2.105469 C 27.8125 1.914062 27.769531 1.726562 27.703125 1.542969 C 27.640625 1.363281 27.550781 1.191406 27.445312 1.027344 C 27.335938 0.867188 27.210938 0.722656 27.066406 0.59375 C 26.921875 0.460938 26.765625 0.351562 26.59375 0.261719 C 26.421875 0.167969 26.242188 0.101562 26.054688 0.0546875 C 25.867188 0.0078125 25.675781 -0.015625 25.484375 -0.015625 C 25.289062 -0.015625 25.097656 0.0078125 24.910156 0.0546875 C 24.722656 0.101562 24.542969 0.167969 24.371094 0.261719 C 24.199219 0.351562 24.042969 0.460938 23.898438 0.59375 C 23.753906 0.722656 23.628906 0.867188 23.519531 1.027344 C 23.414062 1.191406 23.328125 1.363281 23.261719 1.542969 C 23.195312 1.726562 23.152344 1.914062 23.132812 2.105469 C 23.113281 2.300781 23.117188 2.492188 23.144531 2.683594 C 23.171875 2.875 23.222656 3.0625 23.296875 3.242188 C 23.371094 3.417969 23.464844 3.585938 23.582031 3.742188 C 23.695312 3.898438 23.828125 4.039062 23.976562 4.164062 C 24.125 4.285156 24.289062 4.390625 24.460938 4.472656 C 24.636719 4.558594 24.820312 4.621094 25.007812 4.65625 L 25.007812 6.457031 L 23.269531 9.808594 C 23.179688 9.800781 23.089844 9.800781 23 9.808594 L 20.683594 9.808594 L 20.683594 8.507812 C 20.871094 8.46875 21.054688 8.40625 21.226562 8.324219 C 21.402344 8.238281 21.5625 8.136719 21.710938 8.011719 C 21.859375 7.890625 21.992188 7.75 22.105469 7.59375 C 22.21875 7.4375 22.3125 7.269531 22.386719 7.09375 C 22.460938 6.914062 22.511719 6.726562 22.539062 6.535156 C 22.566406 6.347656 22.570312 6.15625 22.550781 5.960938 C 22.53125 5.769531 22.488281 5.582031 22.421875 5.402344 C 22.355469 5.21875 22.269531 5.050781 22.160156 4.890625 C 22.054688 4.730469 21.929688 4.582031 21.785156 4.453125 C 21.640625 4.324219 21.484375 4.214844 21.3125 4.125 C 21.144531 4.035156 20.964844 3.964844 20.777344 3.917969 C 20.589844 3.871094 20.398438 3.847656 20.207031 3.847656 C 20.015625 3.847656 19.824219 3.871094 19.636719 3.917969 C 19.449219 3.964844 19.269531 4.035156 19.101562 4.125 C 18.929688 4.214844 18.773438 4.324219 18.628906 4.453125 C 18.484375 4.582031 18.359375 4.730469 18.253906 4.890625 C 18.144531 5.050781 18.058594 5.21875 17.992188 5.402344 C 17.925781 5.582031 17.882812 5.769531 17.863281 5.960938 C 17.84375 6.15625 17.847656 6.347656 17.875 6.535156 C 17.902344 6.726562 17.953125 6.914062 18.027344 7.09375 C 18.101562 7.269531 18.195312 7.4375 18.308594 7.59375 C 18.421875 7.75 18.554688 7.890625 18.703125 8.011719 C 18.851562 8.136719 19.011719 8.238281 19.1875 8.324219 C 19.359375 8.40625 19.542969 8.46875 19.730469 8.507812 L 19.730469 9.777344 L 15.5 9.777344 L 15.5 5.835938 C 15.6875 5.796875 15.871094 5.734375 16.042969 5.652344 C 16.21875 5.566406 16.378906 5.464844 16.527344 5.339844 C 16.675781 5.21875 16.808594 5.078125 16.921875 4.921875 C 17.035156 4.765625 17.128906 4.601562 17.203125 4.421875 C 17.277344 4.242188 17.328125 4.058594 17.355469 3.867188 C 17.382812 3.675781 17.386719 3.484375 17.367188 3.292969 C 17.347656 3.097656 17.304688 2.910156 17.238281 2.730469 C 17.175781 2.546875 17.089844 2.378906 16.980469 2.21875 C 16.871094 2.058594 16.746094 1.910156 16.605469 1.78125 C 16.460938 1.652344 16.304688 1.542969 16.132812 1.453125 C 15.960938 1.359375 15.785156 1.292969 15.597656 1.246094 C 15.410156 1.199219 15.21875 1.175781 15.023438 1.175781 C 14.832031 1.175781 14.640625 1.199219 14.453125 1.246094 C 14.265625 1.292969 14.089844 1.359375 13.917969 1.453125 C 13.746094 1.542969 13.589844 1.652344 13.445312 1.78125 C 13.304688 1.910156 13.179688 2.058594 13.070312 2.21875 C 12.960938 2.378906 12.875 2.546875 12.808594 2.730469 C 12.746094 2.910156 12.703125 3.097656 12.683594 3.292969 C 12.664062 3.484375 12.667969 3.675781 12.695312 3.867188 C 12.722656 4.058594 12.773438 4.242188 12.847656 4.421875 C 12.917969 4.601562 13.011719 4.765625 13.128906 4.921875 C 13.242188 5.078125 13.375 5.21875 13.523438 5.339844 C 13.671875 5.464844 13.832031 5.566406 14.007812 5.652344 C 14.179688 5.734375 14.363281 5.796875 14.550781 5.835938 L 14.550781 9.777344 L 10.320312 9.777344 L 10.320312 8.507812 C 10.507812 8.46875 10.691406 8.40625 10.863281 8.324219 C 11.039062 8.238281 11.199219 8.136719 11.347656 8.011719 C 11.496094 7.890625 11.628906 7.75 11.742188 7.59375 C 11.855469 7.4375 11.949219 7.269531 12.023438 7.09375 C 12.097656 6.914062 12.144531 6.726562 12.175781 6.535156 C 12.203125 6.347656 12.207031 6.15625 12.1875 5.960938 C 12.164062 5.769531 12.125 5.582031 12.058594 5.402344 C 11.992188 5.21875 11.90625 5.050781 11.796875 4.890625 C 11.691406 4.730469 11.566406 4.582031 11.421875 4.453125 C 11.277344 4.324219 11.121094 4.214844 10.949219 4.125 C 10.78125 4.035156 10.601562 3.964844 10.414062 3.917969 C 10.226562 3.871094 10.035156 3.847656 9.84375 3.847656 C 9.652344 3.847656 9.460938 3.871094 9.273438 3.917969 C 9.085938 3.964844 8.90625 4.035156 8.734375 4.125 C 8.566406 4.214844 8.410156 4.324219 8.265625 4.453125 C 8.121094 4.582031 7.996094 4.730469 7.890625 4.890625 C 7.78125 5.050781 7.695312 5.21875 7.628906 5.402344 C 7.5625 5.582031 7.519531 5.769531 7.5 5.960938 C 7.480469 6.15625 7.484375 6.347656 7.511719 6.535156 C 7.539062 6.726562 7.589844 6.914062 7.664062 7.09375 C 7.738281 7.269531 7.832031 7.4375 7.945312 7.59375 C 8.058594 7.75 8.191406 7.890625 8.339844 8.011719 C 8.488281 8.136719 8.648438 8.238281 8.824219 8.324219 C 8.996094 8.40625 9.179688 8.46875 9.367188 8.507812 L 9.367188 9.777344 L 7.046875 9.777344 C 6.960938 9.769531 6.871094 9.769531 6.78125 9.777344 L 5.046875 6.457031 L 5.046875 4.65625 C 5.238281 4.617188 5.417969 4.558594 5.59375 4.472656 C 5.765625 4.390625 5.929688 4.285156 6.078125 4.164062 C 6.226562 4.039062 6.355469 3.898438 6.46875 3.746094 C 6.585938 3.589844 6.679688 3.421875 6.75 3.242188 C 6.824219 3.0625 6.875 2.878906 6.902344 2.6875 C 6.929688 2.496094 6.933594 2.304688 6.914062 2.113281 C 6.894531 1.921875 6.851562 1.734375 6.785156 1.550781 C 6.71875 1.371094 6.632812 1.199219 6.527344 1.039062 C 6.417969 0.878906 6.292969 0.734375 6.148438 0.605469 C 6.007812 0.476562 5.847656 0.367188 5.679688 0.273438 C 5.507812 0.183594 5.328125 0.113281 5.140625 0.0703125 C 4.953125 0.0234375 4.765625 0 4.570312 0 C 4.378906 0 4.1875 0.0234375 4 0.0703125 C 3.8125 0.113281 3.632812 0.183594 3.464844 0.273438 C 3.292969 0.367188 3.136719 0.476562 2.992188 0.605469 C 2.851562 0.734375 2.726562 0.878906 2.617188 1.039062 C 2.507812 1.199219 2.421875 1.371094 2.355469 1.550781 C 2.292969 1.734375 2.25 1.921875 2.230469 2.113281 C 2.210938 2.304688 2.214844 2.496094 2.242188 2.6875 C 2.269531 2.878906 2.320312 3.0625 2.390625 3.242188 C 2.464844 3.421875 2.558594 3.589844 2.671875 3.746094 C 2.785156 3.898438 2.917969 4.039062 3.066406 4.164062 C 3.214844 4.285156 3.375 4.390625 3.550781 4.472656 C 3.722656 4.558594 3.90625 4.617188 4.09375 4.65625 L 4.09375 6.570312 C 4.097656 6.652344 4.117188 6.726562 4.152344 6.796875 L 5.988281 10.34375 C 5.835938 10.558594 5.757812 10.800781 5.757812 11.0625 L 5.757812 17.917969 C 5.757812 18.183594 5.835938 18.421875 5.988281 18.640625 L 4.152344 22.207031 C 4.113281 22.273438 4.09375 22.347656 4.09375 22.425781 L 4.09375 24.339844 C 3.90625 24.378906 3.722656 24.4375 3.550781 24.523438 C 3.375 24.605469 3.214844 24.710938 3.066406 24.832031 C 2.917969 24.957031 2.785156 25.097656 2.671875 25.25 C 2.558594 25.40625 2.464844 25.574219 2.390625 25.753906 C 2.320312 25.933594 2.269531 26.117188 2.242188 26.308594 C 2.214844 26.5 2.210938 26.691406 2.230469 26.882812 C 2.25 27.074219 2.292969 27.261719 2.355469 27.445312 C 2.421875 27.625 2.507812 27.796875 2.617188 27.957031 C 2.726562 28.117188 2.851562 28.261719 2.992188 28.390625 C 3.136719 28.519531 3.292969 28.628906 3.464844 28.722656 C 3.632812 28.8125 3.8125 28.882812 4 28.929688 C 4.1875 28.972656 4.378906 28.996094 4.570312 28.996094 C 4.765625 28.996094 4.953125 28.972656 5.140625 28.929688 C 5.328125 28.882812 5.507812 28.8125 5.679688 28.722656 C 5.847656 28.628906 6.007812 28.519531 6.148438 28.390625 C 6.292969 28.261719 6.417969 28.117188 6.527344 27.957031 C 6.632812 27.796875 6.71875 27.625 6.785156 27.445312 C 6.851562 27.261719 6.894531 27.074219 6.914062 26.882812 C 6.933594 26.691406 6.929688 26.5 6.902344 26.308594 C 6.875 26.117188 6.824219 25.933594 6.75 25.753906 C 6.679688 25.574219 6.585938 25.40625 6.46875 25.25 C 6.355469 25.097656 6.226562 24.957031 6.078125 24.832031 C 5.929688 24.710938 5.765625 24.605469 5.59375 24.523438 C 5.417969 24.4375 5.238281 24.378906 5.046875 24.339844 L 5.046875 22.539062 L 6.78125 19.1875 C 6.871094 19.199219 6.960938 19.199219 7.046875 19.1875 L 9.367188 19.1875 L 9.367188 20.460938 C 9.179688 20.5 8.996094 20.558594 8.824219 20.644531 C 8.648438 20.726562 8.488281 20.832031 8.339844 20.953125 C 8.191406 21.078125 8.058594 21.21875 7.945312 21.375 C 7.832031 21.53125 7.738281 21.695312 7.664062 21.875 C 7.589844 22.054688 7.539062 22.238281 7.511719 22.429688 C 7.484375 22.621094 7.480469 22.8125 7.5 23.003906 C 7.519531 23.195312 7.5625 23.382812 7.628906 23.566406 C 7.695312 23.746094 7.78125 23.917969 7.890625 24.078125 C 7.996094 24.238281 8.121094 24.382812 8.265625 24.511719 C 8.410156 24.640625 8.566406 24.753906 8.734375 24.84375 C 8.90625 24.933594 9.085938 25.003906 9.273438 25.050781 C 9.460938 25.097656 9.652344 25.121094 9.84375 25.121094 C 10.035156 25.121094 10.226562 25.097656 10.414062 25.050781 C 10.601562 25.003906 10.78125 24.933594 10.949219 24.84375 C 11.121094 24.753906 11.277344 24.640625 11.421875 24.511719 C 11.566406 24.382812 11.691406 24.238281 11.796875 24.078125 C 11.90625 23.917969 11.992188 23.746094 12.058594 23.566406 C 12.125 23.382812 12.164062 23.195312 12.1875 23.003906 C 12.207031 22.8125 12.203125 22.621094 12.175781 22.429688 C 12.144531 22.238281 12.097656 22.054688 12.023438 21.875 C 11.949219 21.695312 11.855469 21.53125 11.742188 21.375 C 11.628906 21.21875 11.496094 21.078125 11.347656 20.953125 C 11.199219 20.832031 11.039062 20.726562 10.863281 20.644531 C 10.691406 20.558594 10.507812 20.5 10.320312 20.460938 L 10.320312 19.21875 L 14.550781 19.21875 L 14.550781 23.167969 C 14.363281 23.207031 14.179688 23.269531 14.003906 23.351562 C 13.832031 23.4375 13.667969 23.539062 13.519531 23.664062 C 13.371094 23.785156 13.238281 23.925781 13.121094 24.082031 C 13.007812 24.238281 12.914062 24.40625 12.839844 24.585938 C 12.765625 24.765625 12.714844 24.949219 12.6875 25.140625 C 12.660156 25.335938 12.65625 25.527344 12.675781 25.71875 C 12.695312 25.914062 12.738281 26.101562 12.804688 26.28125 C 12.871094 26.464844 12.957031 26.636719 13.0625 26.796875 C 13.171875 26.957031 13.296875 27.105469 13.441406 27.234375 C 13.585938 27.363281 13.742188 27.472656 13.914062 27.566406 C 14.085938 27.65625 14.265625 27.726562 14.453125 27.773438 C 14.640625 27.820312 14.832031 27.84375 15.023438 27.84375 C 15.21875 27.84375 15.410156 27.820312 15.597656 27.773438 C 15.785156 27.726562 15.964844 27.65625 16.136719 27.566406 C 16.308594 27.472656 16.464844 27.363281 16.609375 27.234375 C 16.753906 27.105469 16.878906 26.957031 16.988281 26.796875 C 17.09375 26.636719 17.179688 26.464844 17.246094 26.28125 C 17.3125 26.101562 17.355469 25.914062 17.375 25.71875 C 17.394531 25.527344 17.390625 25.335938 17.363281 25.140625 C 17.335938 24.949219 17.285156 24.765625 17.210938 24.585938 C 17.136719 24.40625 17.042969 24.238281 16.925781 24.082031 C 16.8125 23.925781 16.679688 23.785156 16.53125 23.664062 C 16.382812 23.539062 16.21875 23.4375 16.046875 23.351562 C 15.871094 23.269531 15.6875 23.207031 15.5 23.167969 L 15.5 19.21875 L 19.730469 19.21875 L 19.730469 20.488281 C 19.542969 20.527344 19.359375 20.589844 19.1875 20.671875 C 19.011719 20.757812 18.851562 20.859375 18.703125 20.984375 C 18.554688 21.105469 18.421875 21.246094 18.308594 21.402344 C 18.195312 21.558594 18.101562 21.726562 18.027344 21.902344 C 17.953125 22.082031 17.902344 22.269531 17.875 22.460938 C 17.847656 22.648438 17.84375 22.839844 17.863281 23.035156 C 17.882812 23.226562 17.925781 23.414062 17.992188 23.59375 C 18.058594 23.777344 18.144531 23.945312 18.253906 24.105469 C 18.359375 24.265625 18.484375 24.414062 18.628906 24.542969 C 18.773438 24.671875 18.929688 24.78125 19.101562 24.871094 C 19.269531 24.960938 19.449219 25.03125 19.636719 25.078125 C 19.824219 25.125 20.015625 25.148438 20.207031 25.148438 C 20.398438 25.148438 20.589844 25.125 20.777344 25.078125 C 20.964844 25.03125 21.144531 24.960938 21.3125 24.871094 C 21.484375 24.78125 21.640625 24.671875 21.785156 24.542969 C 21.929688 24.414062 22.054688 24.265625 22.160156 24.105469 C 22.269531 23.945312 22.355469 23.777344 22.421875 23.59375 C 22.488281 23.414062 22.53125 23.226562 22.550781 23.035156 C 22.570312 22.839844 22.566406 22.648438 22.539062 22.460938 C 22.511719 22.269531 22.460938 22.082031 22.386719 21.902344 C 22.3125 21.726562 22.21875 21.558594 22.105469 21.402344 C 21.992188 21.246094 21.859375 21.105469 21.710938 20.984375 C 21.5625 20.859375 21.402344 20.757812 21.226562 20.671875 C 21.054688 20.589844 20.871094 20.527344 20.683594 20.488281 L 20.683594 19.21875 L 23 19.21875 C 23.089844 19.230469 23.179688 19.230469 23.269531 19.21875 L 25.007812 22.570312 L 25.007812 24.339844 C 24.820312 24.375 24.636719 24.4375 24.464844 24.523438 C 24.289062 24.605469 24.128906 24.707031 23.980469 24.832031 C 23.832031 24.957031 23.699219 25.09375 23.585938 25.25 C 23.472656 25.40625 23.378906 25.574219 23.304688 25.753906 C 23.230469 25.929688 23.179688 26.117188 23.152344 26.308594 C 23.125 26.5 23.121094 26.691406 23.140625 26.882812 C 23.160156 27.074219 23.203125 27.261719 23.269531 27.441406 C 23.332031 27.625 23.421875 27.796875 23.527344 27.957031 C 23.636719 28.117188 23.761719 28.261719 23.902344 28.390625 C 24.046875 28.519531 24.203125 28.632812 24.375 28.722656 C 24.546875 28.8125 24.722656 28.882812 24.910156 28.929688 C 25.097656 28.976562 25.289062 29 25.484375 29 C 25.675781 29 25.867188 28.976562 26.054688 28.929688 C 26.242188 28.882812 26.421875 28.8125 26.589844 28.722656 C 26.761719 28.632812 26.917969 28.519531 27.0625 28.390625 C 27.203125 28.261719 27.328125 28.117188 27.4375 27.957031 C 27.546875 27.796875 27.632812 27.625 27.699219 27.441406 C 27.761719 27.261719 27.804688 27.074219 27.824219 26.882812 C 27.84375 26.691406 27.839844 26.5 27.8125 26.308594 C 27.785156 26.117188 27.734375 25.929688 27.660156 25.753906 C 27.589844 25.574219 27.496094 25.40625 27.378906 25.25 C 27.265625 25.09375 27.132812 24.957031 26.984375 24.832031 C 26.835938 24.707031 26.675781 24.605469 26.5 24.523438 C 26.328125 24.4375 26.144531 24.375 25.957031 24.339844 Z M 20.179688 21.390625 C 20.367188 21.382812 20.550781 21.414062 20.726562 21.476562 C 20.902344 21.542969 21.058594 21.640625 21.199219 21.769531 C 21.335938 21.898438 21.441406 22.050781 21.519531 22.222656 C 21.597656 22.394531 21.640625 22.574219 21.644531 22.761719 C 21.648438 22.949219 21.617188 23.132812 21.546875 23.308594 C 21.480469 23.484375 21.378906 23.640625 21.25 23.777344 C 21.117188 23.910156 20.96875 24.015625 20.792969 24.089844 C 20.621094 24.167969 20.441406 24.203125 20.25 24.207031 C 20.0625 24.207031 19.882812 24.175781 19.707031 24.101562 C 19.53125 24.03125 19.378906 23.929688 19.242188 23.796875 C 19.109375 23.664062 19.007812 23.511719 18.933594 23.335938 C 18.863281 23.164062 18.828125 22.980469 18.828125 22.792969 C 18.828125 22.609375 18.863281 22.429688 18.933594 22.261719 C 19 22.089844 19.101562 21.941406 19.230469 21.808594 C 19.359375 21.679688 19.507812 21.578125 19.675781 21.503906 C 19.847656 21.433594 20.023438 21.394531 20.207031 21.390625 Z M 15 24.070312 C 15.1875 24.070312 15.363281 24.109375 15.535156 24.179688 C 15.707031 24.25 15.855469 24.355469 15.988281 24.484375 C 16.117188 24.617188 16.21875 24.769531 16.289062 24.941406 C 16.359375 25.113281 16.394531 25.292969 16.394531 25.476562 C 16.394531 25.664062 16.355469 25.839844 16.285156 26.011719 C 16.214844 26.183594 16.113281 26.335938 15.980469 26.464844 C 15.847656 26.597656 15.699219 26.695312 15.527344 26.765625 C 15.355469 26.839844 15.175781 26.875 14.992188 26.871094 C 14.804688 26.871094 14.625 26.835938 14.453125 26.765625 C 14.285156 26.695312 14.132812 26.59375 14 26.460938 C 13.871094 26.332031 13.769531 26.179688 13.699219 26.007812 C 13.628906 25.835938 13.589844 25.65625 13.589844 25.472656 C 13.589844 25.28125 13.628906 25.101562 13.703125 24.925781 C 13.773438 24.753906 13.878906 24.601562 14.015625 24.46875 C 14.148438 24.335938 14.304688 24.234375 14.480469 24.167969 C 14.65625 24.097656 14.839844 24.066406 15.027344 24.070312 Z M 9.816406 21.390625 C 10 21.390625 10.183594 21.425781 10.355469 21.496094 C 10.527344 21.566406 10.679688 21.667969 10.8125 21.800781 C 10.945312 21.933594 11.050781 22.085938 11.121094 22.257812 C 11.195312 22.429688 11.230469 22.609375 11.230469 22.796875 C 11.230469 22.984375 11.195312 23.164062 11.125 23.335938 C 11.050781 23.511719 10.949219 23.664062 10.816406 23.796875 C 10.683594 23.929688 10.53125 24.03125 10.359375 24.101562 C 10.1875 24.171875 10.007812 24.207031 9.820312 24.207031 C 9.632812 24.207031 9.453125 24.171875 9.28125 24.097656 C 9.105469 24.027344 8.953125 23.925781 8.824219 23.792969 C 8.691406 23.660156 8.589844 23.507812 8.519531 23.332031 C 8.449219 23.160156 8.414062 22.980469 8.414062 22.792969 C 8.414062 22.605469 8.449219 22.421875 8.523438 22.25 C 8.597656 22.074219 8.699219 21.921875 8.835938 21.792969 C 8.96875 21.660156 9.125 21.558594 9.296875 21.488281 C 9.472656 21.421875 9.65625 21.386719 9.84375 21.390625 Z M 25.449219 28.050781 C 25.265625 28.050781 25.085938 28.015625 24.914062 27.945312 C 24.742188 27.875 24.589844 27.773438 24.457031 27.640625 C 24.328125 27.511719 24.226562 27.359375 24.152344 27.1875 C 24.082031 27.019531 24.042969 26.839844 24.042969 26.652344 C 24.039062 26.46875 24.074219 26.289062 24.144531 26.117188 C 24.214844 25.945312 24.3125 25.792969 24.441406 25.660156 C 24.570312 25.527344 24.722656 25.421875 24.890625 25.347656 C 25.0625 25.273438 25.242188 25.238281 25.425781 25.234375 C 25.613281 25.230469 25.792969 25.261719 25.964844 25.332031 C 26.136719 25.398438 26.289062 25.496094 26.425781 25.625 C 26.558594 25.753906 26.664062 25.902344 26.738281 26.074219 C 26.8125 26.242188 26.855469 26.421875 26.859375 26.605469 C 26.863281 26.792969 26.832031 26.976562 26.765625 27.148438 C 26.699219 27.324219 26.601562 27.480469 26.472656 27.617188 C 26.339844 27.753906 26.191406 27.859375 26.019531 27.933594 C 25.847656 28.007812 25.667969 28.046875 25.480469 28.050781 Z M 15.027344 2.125 C 15.214844 2.125 15.394531 2.160156 15.570312 2.230469 C 15.742188 2.300781 15.894531 2.402344 16.027344 2.535156 C 16.15625 2.667969 16.257812 2.820312 16.332031 2.996094 C 16.402344 3.167969 16.4375 3.347656 16.4375 3.535156 C 16.4375 3.722656 16.402344 3.902344 16.328125 4.074219 C 16.257812 4.246094 16.15625 4.398438 16.023438 4.53125 C 15.890625 4.660156 15.738281 4.761719 15.5625 4.835938 C 15.390625 4.90625 15.210938 4.941406 15.023438 4.941406 C 14.835938 4.9375 14.65625 4.902344 14.484375 4.832031 C 14.3125 4.757812 14.160156 4.65625 14.027344 4.523438 C 13.898438 4.390625 13.796875 4.238281 13.726562 4.0625 C 13.65625 3.890625 13.621094 3.710938 13.621094 3.523438 C 13.621094 3.339844 13.65625 3.160156 13.726562 2.988281 C 13.800781 2.8125 13.902344 2.664062 14.035156 2.53125 C 14.164062 2.398438 14.316406 2.296875 14.492188 2.226562 C 14.664062 2.15625 14.84375 2.121094 15.027344 2.125 Z M 21.609375 6.203125 C 21.609375 6.390625 21.574219 6.566406 21.5 6.738281 C 21.429688 6.910156 21.328125 7.0625 21.199219 7.195312 C 21.066406 7.324219 20.914062 7.425781 20.742188 7.5 C 20.570312 7.570312 20.394531 7.605469 20.207031 7.605469 C 20.019531 7.605469 19.84375 7.570312 19.671875 7.5 C 19.5 7.425781 19.347656 7.324219 19.214844 7.195312 C 19.085938 7.0625 18.984375 6.910156 18.914062 6.738281 C 18.839844 6.566406 18.804688 6.390625 18.804688 6.203125 C 18.804688 6.019531 18.839844 5.839844 18.914062 5.667969 C 18.984375 5.496094 19.085938 5.34375 19.214844 5.214844 C 19.347656 5.082031 19.5 4.980469 19.671875 4.910156 C 19.84375 4.839844 20.019531 4.800781 20.207031 4.800781 C 20.394531 4.800781 20.570312 4.839844 20.742188 4.910156 C 20.914062 4.980469 21.066406 5.082031 21.199219 5.214844 C 21.328125 5.34375 21.429688 5.496094 21.5 5.667969 C 21.574219 5.839844 21.609375 6.019531 21.609375 6.203125 Z M 6.710938 17.925781 L 6.710938 11.070312 C 6.710938 10.976562 6.742188 10.898438 6.808594 10.832031 C 6.875 10.765625 6.953125 10.730469 7.046875 10.730469 L 23 10.730469 C 23.09375 10.730469 23.175781 10.765625 23.242188 10.832031 C 23.308594 10.898438 23.339844 10.976562 23.339844 11.070312 L 23.339844 17.925781 C 23.339844 18.019531 23.308594 18.097656 23.242188 18.164062 C 23.175781 18.230469 23.09375 18.265625 23 18.265625 L 7.046875 18.265625 C 6.953125 18.265625 6.875 18.230469 6.808594 18.164062 C 6.742188 18.097656 6.710938 18.019531 6.710938 17.925781 Z M 25.484375 3.753906 C 25.300781 3.753906 25.121094 3.71875 24.953125 3.644531 C 24.78125 3.574219 24.628906 3.472656 24.5 3.339844 C 24.367188 3.210938 24.265625 3.058594 24.195312 2.886719 C 24.125 2.714844 24.09375 2.535156 24.09375 2.347656 C 24.09375 2.164062 24.128906 1.984375 24.199219 1.8125 C 24.273438 1.644531 24.375 1.492188 24.503906 1.359375 C 24.636719 1.230469 24.789062 1.128906 24.960938 1.058594 C 25.132812 0.988281 25.308594 0.953125 25.496094 0.953125 C 25.679688 0.953125 25.859375 0.988281 26.03125 1.0625 C 26.203125 1.132812 26.355469 1.234375 26.484375 1.363281 C 26.617188 1.496094 26.71875 1.648438 26.789062 1.820312 C 26.859375 1.992188 26.894531 2.167969 26.894531 2.355469 C 26.894531 2.542969 26.859375 2.722656 26.785156 2.894531 C 26.714844 3.066406 26.613281 3.21875 26.480469 3.351562 C 26.347656 3.480469 26.191406 3.582031 26.019531 3.652344 C 25.847656 3.722656 25.667969 3.757812 25.480469 3.753906 Z M 9.84375 4.800781 C 10.03125 4.800781 10.207031 4.839844 10.378906 4.910156 C 10.550781 4.980469 10.703125 5.082031 10.835938 5.214844 C 10.964844 5.34375 11.066406 5.496094 11.136719 5.667969 C 11.210938 5.839844 11.246094 6.019531 11.246094 6.203125 C 11.246094 6.390625 11.210938 6.566406 11.136719 6.738281 C 11.066406 6.910156 10.964844 7.0625 10.835938 7.195312 C 10.703125 7.324219 10.550781 7.425781 10.378906 7.5 C 10.207031 7.570312 10.03125 7.605469 9.84375 7.605469 C 9.65625 7.605469 9.480469 7.570312 9.308594 7.5 C 9.136719 7.425781 8.984375 7.324219 8.851562 7.195312 C 8.722656 7.0625 8.621094 6.910156 8.550781 6.738281 C 8.476562 6.566406 8.441406 6.390625 8.441406 6.203125 C 8.441406 6.019531 8.476562 5.839844 8.550781 5.667969 C 8.621094 5.496094 8.722656 5.34375 8.851562 5.214844 C 8.984375 5.082031 9.136719 4.980469 9.308594 4.910156 C 9.480469 4.839844 9.65625 4.800781 9.84375 4.800781 Z M 4.570312 3.753906 C 4.386719 3.753906 4.207031 3.71875 4.035156 3.648438 C 3.863281 3.578125 3.710938 3.476562 3.582031 3.34375 C 3.449219 3.214844 3.347656 3.0625 3.277344 2.890625 C 3.207031 2.71875 3.171875 2.539062 3.171875 2.355469 C 3.171875 2.167969 3.207031 1.988281 3.277344 1.816406 C 3.347656 1.648438 3.449219 1.496094 3.582031 1.363281 C 3.710938 1.230469 3.863281 1.132812 4.035156 1.058594 C 4.207031 0.988281 4.386719 0.953125 4.570312 0.953125 C 4.757812 0.953125 4.9375 0.988281 5.109375 1.058594 C 5.28125 1.132812 5.429688 1.230469 5.5625 1.363281 C 5.695312 1.496094 5.792969 1.648438 5.867188 1.816406 C 5.9375 1.988281 5.972656 2.167969 5.972656 2.355469 C 5.972656 2.539062 5.9375 2.71875 5.867188 2.890625 C 5.792969 3.0625 5.695312 3.214844 5.5625 3.34375 C 5.429688 3.476562 5.28125 3.578125 5.109375 3.648438 C 4.9375 3.71875 4.757812 3.753906 4.570312 3.753906 Z M 4.570312 28.050781 C 4.386719 28.050781 4.207031 28.015625 4.035156 27.945312 C 3.863281 27.875 3.710938 27.777344 3.578125 27.644531 C 3.445312 27.515625 3.34375 27.363281 3.269531 27.195312 C 3.195312 27.023438 3.160156 26.84375 3.15625 26.660156 C 3.15625 26.472656 3.1875 26.292969 3.257812 26.121094 C 3.324219 25.949219 3.425781 25.792969 3.554688 25.660156 C 3.683594 25.527344 3.832031 25.425781 4.003906 25.351562 C 4.175781 25.277344 4.351562 25.238281 4.539062 25.234375 C 4.722656 25.230469 4.902344 25.261719 5.078125 25.328125 C 5.25 25.398438 5.402344 25.496094 5.539062 25.625 C 5.671875 25.753906 5.777344 25.902344 5.851562 26.070312 C 5.929688 26.242188 5.96875 26.417969 5.972656 26.605469 C 5.976562 26.796875 5.945312 26.976562 5.878906 27.15625 C 5.808594 27.332031 5.710938 27.488281 5.578125 27.625 C 5.445312 27.761719 5.292969 27.867188 5.117188 27.9375 C 4.941406 28.011719 4.761719 28.050781 4.570312 28.050781 Z M 4.570312 28.050781 " fill-opacity="1" fill-rule="nonzero"/><path fill="#ffffff" d="M 15.027344 17.414062 C 15.160156 17.414062 15.269531 17.367188 15.359375 17.273438 C 15.453125 17.183594 15.5 17.074219 15.5 16.941406 L 15.5 14.972656 L 18.515625 14.972656 C 18.648438 14.972656 18.761719 14.929688 18.855469 14.835938 C 18.945312 14.746094 18.992188 14.632812 18.992188 14.5 L 18.992188 12.0625 C 18.996094 11.929688 18.949219 11.816406 18.855469 11.722656 C 18.761719 11.628906 18.648438 11.582031 18.515625 11.585938 L 15.027344 11.585938 C 14.894531 11.582031 14.785156 11.628906 14.691406 11.722656 C 14.597656 11.816406 14.550781 11.929688 14.550781 12.0625 L 14.550781 16.941406 C 14.550781 17.074219 14.597656 17.183594 14.691406 17.277344 C 14.785156 17.371094 14.898438 17.414062 15.027344 17.414062 Z M 15.5 14.023438 L 15.5 12.539062 L 18.039062 12.539062 L 18.039062 14.023438 Z M 15.5 14.023438 " fill-opacity="1" fill-rule="nonzero"/><path fill="#ffffff" d="M 8.773438 17.390625 L 8.933594 17.390625 C 9.15625 17.394531 9.304688 17.289062 9.382812 17.078125 L 9.828125 15.886719 L 11.539062 15.886719 L 11.980469 17.125 C 12.058594 17.332031 12.207031 17.433594 12.429688 17.433594 C 12.480469 17.441406 12.535156 17.441406 12.585938 17.433594 C 12.710938 17.386719 12.800781 17.304688 12.859375 17.1875 C 12.914062 17.066406 12.921875 16.945312 12.875 16.820312 L 11.128906 11.945312 C 11.054688 11.730469 10.90625 11.625 10.679688 11.628906 C 10.457031 11.625 10.304688 11.730469 10.234375 11.945312 L 8.484375 16.777344 C 8.441406 16.902344 8.449219 17.023438 8.503906 17.144531 C 8.5625 17.261719 8.652344 17.34375 8.773438 17.390625 Z M 11.203125 14.914062 L 10.160156 14.914062 L 10.675781 13.46875 Z M 11.203125 14.914062 " fill-opacity="1" fill-rule="nonzero"/><path fill="#ffffff" d="M 21.117188 17.414062 C 21.246094 17.414062 21.359375 17.367188 21.453125 17.273438 C 21.542969 17.183594 21.589844 17.074219 21.59375 16.941406 L 21.59375 12.0625 C 21.59375 11.929688 21.546875 11.816406 21.453125 11.722656 C 21.359375 11.628906 21.25 11.585938 21.117188 11.585938 C 20.984375 11.585938 20.871094 11.628906 20.78125 11.722656 C 20.6875 11.816406 20.640625 11.929688 20.640625 12.0625 L 20.640625 16.941406 C 20.640625 17.074219 20.6875 17.183594 20.78125 17.277344 C 20.875 17.371094 20.984375 17.414062 21.117188 17.414062 Z M 21.117188 17.414062 " fill-opacity="1" fill-rule="nonzero"/></svg>