<svg xmlns="http://www.w3.org/2000/svg" xmlns:xlink="http://www.w3.org/1999/xlink" width="40" zoomAndPan="magnify" viewBox="0 0 30 30.000001" height="40" preserveAspectRatio="xMidYMid meet" version="1.0"><defs><clipPath id="b70e9dcdc3"><path d="M 0.742188 1.453125 L 27 1.453125 L 27 27.582031 L 0.742188 27.582031 Z M 0.742188 1.453125 " clip-rule="nonzero"/></clipPath><clipPath id="dc29fb80aa"><path d="M 15 13 L 29.046875 13 L 29.046875 27.582031 L 15 27.582031 Z M 15 13 " clip-rule="nonzero"/></clipPath></defs><g clip-path="url(#b70e9dcdc3)"><path fill="#ffffff" d="M 19.246094 21.816406 C 18.695312 21.816406 18.15625 21.710938 17.648438 21.507812 C 17.347656 21.382812 17.0625 21.230469 16.800781 21.042969 C 15.882812 21.46875 14.863281 21.703125 13.785156 21.703125 C 9.804688 21.703125 6.574219 18.476562 6.574219 14.492188 C 6.574219 10.511719 9.804688 7.28125 13.785156 7.28125 C 17.496094 7.28125 20.550781 10.085938 20.949219 13.6875 C 21.433594 13.902344 21.867188 14.199219 22.242188 14.574219 C 22.820312 15.148438 23.214844 15.875 23.386719 16.664062 C 23.527344 17.296875 23.519531 17.945312 23.367188 18.570312 L 23.722656 18.925781 L 26.261719 18.964844 C 26.566406 17.835938 26.523438 17.988281 26.828125 16.859375 L 24.34375 15.476562 C 24.34375 14.59375 24.34375 14.390625 24.34375 13.507812 L 26.828125 12.128906 C 26.523438 10.996094 26.566406 11.152344 26.261719 10.019531 L 23.417969 10.066406 C 22.976562 9.300781 22.875 9.128906 22.433594 8.363281 L 23.898438 5.925781 C 23.070312 5.097656 23.183594 5.210938 22.355469 4.382812 L 19.914062 5.84375 C 19.152344 5.402344 18.976562 5.300781 18.210938 4.859375 L 18.257812 2.015625 C 17.128906 1.714844 17.28125 1.753906 16.148438 1.453125 L 14.769531 3.9375 C 13.886719 3.9375 13.683594 3.9375 12.800781 3.9375 L 11.421875 1.453125 C 10.289062 1.753906 10.441406 1.714844 9.3125 2.015625 L 9.359375 4.859375 C 8.59375 5.300781 8.417969 5.402344 7.65625 5.84375 L 5.214844 4.382812 C 4.386719 5.210938 4.5 5.097656 3.671875 5.925781 L 5.132812 8.363281 C 4.691406 9.128906 4.59375 9.300781 4.152344 10.066406 L 1.308594 10.019531 C 1.003906 11.152344 1.046875 11 0.742188 12.128906 L 3.226562 13.511719 C 3.226562 14.394531 3.226562 14.59375 3.226562 15.476562 L 0.742188 16.859375 C 1.046875 17.988281 1.003906 17.835938 1.308594 18.96875 L 4.152344 18.921875 C 4.59375 19.683594 4.691406 19.859375 5.132812 20.625 L 3.671875 23.0625 C 4.5 23.890625 4.386719 23.777344 5.214844 24.605469 L 7.65625 23.144531 C 8.417969 23.585938 8.59375 23.6875 9.359375 24.128906 L 9.3125 26.972656 C 10.441406 27.273438 10.289062 27.234375 11.421875 27.535156 L 12.800781 25.050781 C 13.683594 25.050781 13.886719 25.050781 14.769531 25.050781 L 16.148438 27.535156 C 17.28125 27.234375 17.128906 27.273438 18.257812 26.972656 L 18.210938 24.128906 C 18.976562 23.6875 19.152344 23.585938 19.914062 23.144531 L 22.355469 24.605469 C 22.519531 24.441406 22.644531 24.316406 22.75 24.210938 L 20.238281 21.699219 C 19.914062 21.777344 19.582031 21.816406 19.246094 21.816406 Z M 19.246094 21.816406 " fill-opacity="1" fill-rule="nonzero"/></g><g clip-path="url(#dc29fb80aa)"><path fill="#ffffff" d="M 28.644531 24.785156 L 22.621094 18.761719 C 23.0625 17.503906 22.78125 16.050781 21.777344 15.042969 C 20.707031 13.976562 19.136719 13.726562 17.828125 14.289062 L 20.117188 16.578125 L 18.246094 18.449219 L 15.957031 16.15625 C 15.394531 17.464844 15.648438 19.039062 16.714844 20.105469 C 17.71875 21.109375 19.171875 21.394531 20.429688 20.953125 L 26.453125 26.976562 C 27.058594 27.582031 28.039062 27.582031 28.644531 26.976562 C 29.25 26.371094 29.25 25.386719 28.644531 24.785156 Z M 28.644531 24.785156 " fill-opacity="1" fill-rule="nonzero"/></g><path fill="#ffffff" d="M 9.296875 17.398438 L 9.296875 13.050781 L 10.285156 13.050781 L 10.285156 11.800781 L 9.296875 11.800781 L 9.296875 10.59375 L 8.566406 10.59375 L 8.566406 11.800781 L 7.578125 11.800781 L 7.578125 13.050781 L 8.566406 13.050781 L 8.566406 17.398438 Z M 9.296875 17.398438 " fill-opacity="1" fill-rule="nonzero"/><path fill="#ffffff" d="M 11.78125 17.398438 L 11.78125 16.375 L 12.769531 16.375 L 12.769531 15.125 L 11.78125 15.125 L 11.78125 10.59375 L 11.054688 10.59375 L 11.054688 15.125 L 10.0625 15.125 L 10.0625 16.375 L 11.054688 16.375 L 11.054688 17.398438 Z M 11.78125 17.398438 " fill-opacity="1" fill-rule="nonzero"/><path fill="#ffffff" d="M 14.277344 17.398438 L 14.277344 13.882812 L 15.265625 13.882812 L 15.265625 12.632812 L 14.277344 12.632812 L 14.277344 10.59375 L 13.550781 10.59375 L 13.550781 12.632812 L 12.558594 12.632812 L 12.558594 13.882812 L 13.550781 13.882812 L 13.550781 17.398438 Z M 14.277344 17.398438 " fill-opacity="1" fill-rule="nonzero"/></svg>