<svg xmlns="http://www.w3.org/2000/svg" xmlns:xlink="http://www.w3.org/1999/xlink" width="40" zoomAndPan="magnify" viewBox="0 0 30 30.000001" height="40" preserveAspectRatio="xMidYMid meet" version="1.0"><defs><clipPath id="1da889a438"><path d="M 0.484375 1.160156 L 29.515625 1.160156 L 29.515625 26.566406 L 0.484375 26.566406 Z M 0.484375 1.160156 " clip-rule="nonzero"/></clipPath></defs><g clip-path="url(#1da889a438)"><path fill="#ffffff" d="M 11.449219 18.476562 C 11.722656 18.476562 11.902344 18.65625 11.902344 18.929688 C 11.902344 19.199219 11.722656 19.382812 11.449219 19.382812 L 3.628906 19.382812 C 3.355469 19.382812 3.175781 19.199219 3.175781 18.929688 C 3.175781 18.65625 3.355469 18.476562 3.628906 18.476562 Z M 1.007812 14.679688 L 8.828125 14.679688 C 9.101562 14.679688 9.28125 14.859375 9.28125 15.132812 C 9.28125 15.390625 9.121094 15.5625 8.875 15.582031 L 8.828125 15.585938 L 1.007812 15.585938 C 0.734375 15.585938 0.554688 15.402344 0.554688 15.132812 C 0.554688 14.875 0.714844 14.699219 0.960938 14.679688 L 8.828125 14.679688 Z M 3.628906 10.882812 L 11.449219 10.882812 C 11.722656 10.882812 11.902344 11.0625 11.902344 11.335938 C 11.902344 11.589844 11.742188 11.765625 11.496094 11.785156 L 3.628906 11.785156 C 3.355469 11.785156 3.175781 11.605469 3.175781 11.335938 C 3.175781 11.078125 3.335938 10.902344 3.582031 10.882812 L 11.449219 10.882812 Z M 28.21875 10.1875 C 29.007812 11.726562 29.445312 13.472656 29.445312 15.3125 C 29.445312 21.597656 24.335938 26.707031 18.050781 26.703125 C 15.019531 26.703125 12.171875 25.527344 10 23.359375 C 9.820312 23.179688 9.820312 22.90625 10 22.726562 C 10.179688 22.546875 10.453125 22.546875 10.632812 22.726562 C 12.621094 24.714844 15.246094 25.800781 18.046875 25.800781 C 23.835938 25.800781 28.539062 21.101562 28.539062 15.3125 C 28.539062 13.734375 28.183594 12.230469 27.546875 10.882812 Z M 26.832031 11.628906 C 27.320312 12.773438 27.589844 14.03125 27.589844 15.355469 C 27.589844 20.601562 23.339844 24.851562 18.097656 24.851562 C 16.152344 24.851562 14.296875 24.261719 12.714844 23.179688 C 12.488281 23.042969 12.445312 22.773438 12.582031 22.546875 C 12.714844 22.367188 12.988281 22.320312 13.257812 22.453125 C 14.660156 23.445312 16.332031 23.945312 18.097656 23.945312 C 22.84375 23.945312 26.6875 20.101562 26.6875 15.355469 C 26.6875 14.296875 26.496094 13.28125 26.144531 12.34375 Z M 26.714844 7.679688 C 27.117188 7.625 27.511719 7.835938 27.6875 8.199219 C 27.867188 8.566406 27.789062 9.003906 27.5 9.289062 C 24.171875 12.621094 21.769531 15.324219 18.402344 18.695312 C 18.058594 19.042969 17.503906 19.070312 17.128906 18.753906 L 13.054688 15.304688 C 12.859375 15.144531 12.742188 14.914062 12.71875 14.664062 C 12.699219 14.414062 12.777344 14.167969 12.9375 13.976562 C 13.101562 13.78125 13.332031 13.664062 13.578125 13.644531 C 13.828125 13.621094 14.078125 13.703125 14.269531 13.863281 L 17.679688 16.746094 C 20.675781 13.707031 23.027344 11.113281 26.164062 7.964844 C 26.3125 7.8125 26.503906 7.710938 26.714844 7.679688 Z M 18.097656 5.859375 C 20.492188 5.859375 22.679688 6.746094 24.347656 8.210938 L 23.726562 8.863281 C 22.21875 7.554688 20.25 6.761719 18.097656 6.761719 C 16.289062 6.761719 14.523438 7.308594 13.078125 8.390625 C 12.851562 8.527344 12.578125 8.480469 12.445312 8.300781 C 12.308594 8.121094 12.355469 7.804688 12.535156 7.667969 C 14.164062 6.492188 16.105469 5.859375 18.097656 5.859375 Z M 20.128906 1.160156 C 20.402344 1.160156 20.582031 1.339844 20.582031 1.613281 C 20.582031 1.871094 20.421875 2.046875 20.175781 2.0625 L 20.128906 2.066406 L 18.503906 2.066406 L 18.503906 3.964844 C 21.160156 4.050781 23.558594 5.050781 25.441406 6.664062 L 25.554688 6.765625 L 25.644531 6.855469 L 25.015625 7.515625 C 23.144531 5.871094 20.699219 4.867188 18.046875 4.867188 C 15.15625 4.867188 12.441406 6.042969 10.40625 8.167969 C 10.226562 8.347656 9.957031 8.347656 9.777344 8.167969 C 9.59375 7.988281 9.59375 7.714844 9.777344 7.535156 C 11.820312 5.359375 14.511719 4.144531 17.433594 3.972656 L 17.597656 3.964844 L 17.597656 2.066406 L 16.015625 2.066406 C 15.742188 2.066406 15.5625 1.886719 15.5625 1.613281 C 15.5625 1.355469 15.722656 1.179688 15.972656 1.164062 L 16.015625 1.160156 Z M 20.128906 1.160156 " fill-opacity="1" fill-rule="evenodd"/></g></svg>