<svg xmlns="http://www.w3.org/2000/svg" xmlns:xlink="http://www.w3.org/1999/xlink" width="131" zoomAndPan="magnify" viewBox="0 0 98.25 30.000001" height="40" preserveAspectRatio="xMidYMid meet" version="1.0"><defs><g/><clipPath id="e1e6543be0"><path d="M 1.222656 3.9375 L 22.335938 3.9375 L 22.335938 25.054688 L 1.222656 25.054688 Z M 1.222656 3.9375 " clip-rule="nonzero"/></clipPath></defs><g clip-path="url(#e1e6543be0)"><path fill="#f03c2e" d="M 21.9375 13.554688 L 12.71875 4.335938 C 12.59375 4.210938 12.445312 4.109375 12.277344 4.042969 C 12.113281 3.972656 11.9375 3.9375 11.757812 3.9375 C 11.578125 3.9375 11.40625 3.972656 11.238281 4.042969 C 11.070312 4.109375 10.925781 4.210938 10.796875 4.335938 L 8.882812 6.25 L 11.3125 8.679688 C 11.875 8.480469 12.523438 8.617188 12.972656 9.066406 C 13.191406 9.285156 13.335938 9.546875 13.40625 9.847656 C 13.472656 10.148438 13.457031 10.445312 13.355469 10.738281 L 15.695312 13.078125 C 16.261719 12.882812 16.917969 13.007812 17.367188 13.460938 C 17.519531 13.613281 17.636719 13.789062 17.71875 13.988281 C 17.800781 14.183594 17.84375 14.390625 17.84375 14.605469 C 17.84375 14.820312 17.800781 15.027344 17.71875 15.226562 C 17.636719 15.425781 17.519531 15.597656 17.367188 15.75 C 17.214844 15.902344 17.042969 16.019531 16.84375 16.101562 C 16.644531 16.183594 16.4375 16.226562 16.222656 16.226562 C 16.007812 16.226562 15.800781 16.183594 15.605469 16.101562 C 15.40625 16.019531 15.230469 15.902344 15.078125 15.75 C 14.605469 15.273438 14.488281 14.574219 14.726562 13.992188 L 12.542969 11.808594 L 12.542969 17.550781 C 12.703125 17.628906 12.847656 17.734375 12.972656 17.859375 C 13.125 18.007812 13.242188 18.183594 13.324219 18.382812 C 13.40625 18.582031 13.445312 18.789062 13.445312 19.003906 C 13.445312 19.214844 13.40625 19.421875 13.324219 19.621094 C 13.242188 19.820312 13.125 19.996094 12.972656 20.144531 C 12.820312 20.296875 12.644531 20.414062 12.449219 20.496094 C 12.25 20.578125 12.042969 20.621094 11.828125 20.621094 C 11.613281 20.621094 11.40625 20.578125 11.210938 20.496094 C 11.011719 20.414062 10.835938 20.296875 10.683594 20.144531 C 10.53125 19.996094 10.414062 19.820312 10.332031 19.621094 C 10.25 19.421875 10.210938 19.21875 10.210938 19.003906 C 10.210938 18.789062 10.25 18.582031 10.332031 18.382812 C 10.414062 18.183594 10.53125 18.007812 10.683594 17.859375 C 10.839844 17.703125 11.015625 17.585938 11.214844 17.503906 L 11.214844 11.707031 C 11.023438 11.628906 10.839844 11.511719 10.683594 11.355469 C 10.453125 11.121094 10.304688 10.84375 10.242188 10.523438 C 10.175781 10.199219 10.210938 9.886719 10.335938 9.585938 L 7.941406 7.191406 L 1.621094 13.507812 C 1.492188 13.632812 1.394531 13.78125 1.324219 13.949219 C 1.253906 14.113281 1.222656 14.289062 1.222656 14.46875 C 1.222656 14.648438 1.253906 14.820312 1.324219 14.988281 C 1.394531 15.15625 1.492188 15.300781 1.621094 15.429688 L 10.839844 24.648438 C 10.964844 24.777344 11.113281 24.875 11.28125 24.941406 C 11.445312 25.011719 11.621094 25.046875 11.800781 25.046875 C 11.980469 25.046875 12.152344 25.011719 12.320312 24.941406 C 12.488281 24.875 12.632812 24.777344 12.761719 24.648438 L 21.9375 15.484375 C 22.066406 15.359375 22.164062 15.210938 22.234375 15.042969 C 22.300781 14.878906 22.335938 14.703125 22.335938 14.523438 C 22.335938 14.34375 22.300781 14.171875 22.234375 14.003906 C 22.164062 13.835938 22.066406 13.691406 21.9375 13.5625 " fill-opacity="1" fill-rule="nonzero"/></g><g fill="#efefef" fill-opacity="1"><g transform="translate(26.402684, 21.860532)"><g><path d="M 11.1875 -7.578125 L 14.8125 -7.578125 L 14.8125 -1.5625 C 13.988281 -0.957031 13.035156 -0.492188 11.953125 -0.171875 C 10.867188 0.140625 9.789062 0.296875 8.71875 0.296875 C 7.195312 0.296875 5.828125 -0.0234375 4.609375 -0.671875 C 3.390625 -1.316406 2.429688 -2.210938 1.734375 -3.359375 C 1.046875 -4.503906 0.703125 -5.804688 0.703125 -7.265625 C 0.703125 -8.710938 1.046875 -10.007812 1.734375 -11.15625 C 2.429688 -12.3125 3.394531 -13.207031 4.625 -13.84375 C 5.851562 -14.488281 7.242188 -14.8125 8.796875 -14.8125 C 10.148438 -14.8125 11.363281 -14.582031 12.4375 -14.125 C 13.519531 -13.675781 14.421875 -13.019531 15.140625 -12.15625 L 12.53125 -9.796875 C 11.550781 -10.867188 10.375 -11.40625 9 -11.40625 C 7.757812 -11.40625 6.757812 -11.03125 6 -10.28125 C 5.238281 -9.53125 4.859375 -8.523438 4.859375 -7.265625 C 4.859375 -6.460938 5.03125 -5.742188 5.375 -5.109375 C 5.71875 -4.484375 6.203125 -3.992188 6.828125 -3.640625 C 7.453125 -3.285156 8.164062 -3.109375 8.96875 -3.109375 C 9.75 -3.109375 10.488281 -3.269531 11.1875 -3.59375 Z M 11.1875 -7.578125 "/></g></g></g><g fill="#efefef" fill-opacity="1"><g transform="translate(41.609262, 21.860532)"><g><path d="M 1.265625 -11.25 L 5.203125 -11.25 L 5.203125 0 L 1.265625 0 Z M 3.25 -12.484375 C 2.53125 -12.484375 1.945312 -12.679688 1.5 -13.078125 C 1.0625 -13.484375 0.84375 -13.988281 0.84375 -14.59375 C 0.84375 -15.1875 1.0625 -15.679688 1.5 -16.078125 C 1.945312 -16.484375 2.53125 -16.6875 3.25 -16.6875 C 3.96875 -16.6875 4.546875 -16.492188 4.984375 -16.109375 C 5.429688 -15.734375 5.65625 -15.25 5.65625 -14.65625 C 5.65625 -14.03125 5.429688 -13.507812 4.984375 -13.09375 C 4.546875 -12.6875 3.96875 -12.484375 3.25 -12.484375 Z M 3.25 -12.484375 "/></g></g></g><g fill="#efefef" fill-opacity="1"><g transform="translate(47.335011, 21.860532)"><g><path d="M 9.03125 -0.453125 C 8.695312 -0.242188 8.289062 -0.0859375 7.8125 0.015625 C 7.332031 0.128906 6.820312 0.1875 6.28125 0.1875 C 4.820312 0.1875 3.695312 -0.171875 2.90625 -0.890625 C 2.113281 -1.609375 1.71875 -2.679688 1.71875 -4.109375 L 1.71875 -7.890625 L 0.078125 -7.890625 L 0.078125 -10.828125 L 1.71875 -10.828125 L 1.71875 -13.75 L 5.671875 -13.75 L 5.671875 -10.828125 L 8.234375 -10.828125 L 8.234375 -7.890625 L 5.671875 -7.890625 L 5.671875 -4.15625 C 5.671875 -3.75 5.773438 -3.429688 5.984375 -3.203125 C 6.203125 -2.972656 6.488281 -2.859375 6.84375 -2.859375 C 7.300781 -2.859375 7.703125 -2.976562 8.046875 -3.21875 Z M 9.03125 -0.453125 "/></g></g></g><g fill="#f03c2e" fill-opacity="1"><g transform="translate(55.841253, 21.860532)"><g><path d="M 14.5625 0 L 14.53125 -7.703125 L 10.796875 -1.4375 L 8.96875 -1.4375 L 5.25 -7.484375 L 5.25 0 L 1.453125 0 L 1.453125 -14.53125 L 4.828125 -14.53125 L 9.9375 -6.140625 L 14.921875 -14.53125 L 18.296875 -14.53125 L 18.34375 0 Z M 14.5625 0 "/></g></g></g><g fill="#efefef" fill-opacity="1"><g transform="translate(74.865691, 21.860532)"><g><path d="M 12.765625 -5.609375 C 12.765625 -5.578125 12.742188 -5.25 12.703125 -4.625 L 4.53125 -4.625 C 4.6875 -4.039062 5.003906 -3.59375 5.484375 -3.28125 C 5.960938 -2.976562 6.5625 -2.828125 7.28125 -2.828125 C 7.820312 -2.828125 8.289062 -2.898438 8.6875 -3.046875 C 9.082031 -3.203125 9.476562 -3.453125 9.875 -3.796875 L 11.953125 -1.640625 C 10.859375 -0.421875 9.257812 0.1875 7.15625 0.1875 C 5.84375 0.1875 4.6875 -0.0625 3.6875 -0.5625 C 2.695312 -1.0625 1.925781 -1.753906 1.375 -2.640625 C 0.832031 -3.523438 0.5625 -4.523438 0.5625 -5.640625 C 0.5625 -6.742188 0.828125 -7.734375 1.359375 -8.609375 C 1.890625 -9.492188 2.625 -10.1875 3.5625 -10.6875 C 4.507812 -11.1875 5.570312 -11.4375 6.75 -11.4375 C 7.863281 -11.4375 8.875 -11.203125 9.78125 -10.734375 C 10.695312 -10.273438 11.421875 -9.601562 11.953125 -8.71875 C 12.492188 -7.84375 12.765625 -6.804688 12.765625 -5.609375 Z M 6.765625 -8.625 C 6.148438 -8.625 5.640625 -8.453125 5.234375 -8.109375 C 4.828125 -7.765625 4.570312 -7.296875 4.46875 -6.703125 L 9.0625 -6.703125 C 8.957031 -7.296875 8.695312 -7.765625 8.28125 -8.109375 C 7.875 -8.453125 7.367188 -8.625 6.765625 -8.625 Z M 6.765625 -8.625 "/></g></g></g></svg>