<svg xmlns="http://www.w3.org/2000/svg" xmlns:xlink="http://www.w3.org/1999/xlink" width="131" zoomAndPan="magnify" viewBox="0 0 98.25 30.000001" height="40" preserveAspectRatio="xMidYMid meet" version="1.0"><defs><g/><clipPath id="f59dfb5bbc"><path d="M 2.671875 3.9375 L 23.722656 3.9375 L 23.722656 24.988281 L 2.671875 24.988281 Z M 2.671875 3.9375 " clip-rule="nonzero"/></clipPath><clipPath id="a5ef12656b"><path d="M 22 13.480469 L 27.765625 13.480469 L 27.765625 20 L 22 20 Z M 22 13.480469 " clip-rule="nonzero"/></clipPath><clipPath id="f7b40c2085"><path d="M 13.25 23 L 21 23 L 21 25.09375 L 13.25 25.09375 Z M 13.25 23 " clip-rule="nonzero"/></clipPath></defs><g clip-path="url(#f59dfb5bbc)"><path fill="#f03c2e" d="M 23.324219 13.527344 L 14.136719 4.335938 C 14.007812 4.207031 13.859375 4.109375 13.695312 4.042969 C 13.527344 3.972656 13.355469 3.9375 13.175781 3.9375 C 12.996094 3.9375 12.824219 3.972656 12.65625 4.042969 C 12.492188 4.109375 12.34375 4.207031 12.21875 4.335938 L 10.3125 6.242188 L 12.730469 8.664062 C 13.292969 8.464844 13.9375 8.601562 14.386719 9.050781 C 14.605469 9.269531 14.75 9.527344 14.816406 9.828125 C 14.886719 10.128906 14.871094 10.425781 14.769531 10.714844 L 17.101562 13.050781 C 17.667969 12.855469 18.316406 12.980469 18.769531 13.433594 C 18.921875 13.582031 19.035156 13.757812 19.117188 13.957031 C 19.199219 14.152344 19.242188 14.359375 19.242188 14.574219 C 19.242188 14.785156 19.199219 14.992188 19.117188 15.191406 C 19.035156 15.386719 18.921875 15.5625 18.769531 15.714844 C 18.617188 15.867188 18.441406 15.980469 18.246094 16.0625 C 18.046875 16.144531 17.84375 16.1875 17.628906 16.1875 C 17.414062 16.1875 17.207031 16.144531 17.011719 16.0625 C 16.8125 15.980469 16.636719 15.863281 16.488281 15.714844 C 16.011719 15.238281 15.894531 14.542969 16.136719 13.957031 L 13.960938 11.78125 L 13.960938 17.507812 C 14.117188 17.585938 14.261719 17.6875 14.386719 17.8125 C 14.539062 17.964844 14.65625 18.140625 14.738281 18.335938 C 14.820312 18.535156 14.859375 18.742188 14.859375 18.953125 C 14.859375 19.167969 14.820312 19.375 14.738281 19.570312 C 14.65625 19.769531 14.539062 19.945312 14.386719 20.09375 C 14.234375 20.246094 14.0625 20.363281 13.863281 20.445312 C 13.667969 20.527344 13.460938 20.566406 13.246094 20.566406 C 13.03125 20.566406 12.828125 20.527344 12.628906 20.445312 C 12.433594 20.363281 12.257812 20.246094 12.105469 20.09375 C 11.953125 19.945312 11.839844 19.769531 11.757812 19.570312 C 11.675781 19.375 11.632812 19.167969 11.632812 18.953125 C 11.632812 18.742188 11.675781 18.535156 11.757812 18.335938 C 11.839844 18.140625 11.953125 17.964844 12.105469 17.8125 C 12.261719 17.660156 12.433594 17.542969 12.632812 17.460938 L 12.632812 11.683594 C 12.441406 11.605469 12.261719 11.488281 12.105469 11.332031 C 11.875 11.101562 11.726562 10.824219 11.664062 10.503906 C 11.601562 10.179688 11.632812 9.871094 11.757812 9.566406 L 9.371094 7.179688 L 3.070312 13.476562 C 2.941406 13.601562 2.84375 13.75 2.777344 13.914062 C 2.707031 14.082031 2.671875 14.253906 2.671875 14.433594 C 2.671875 14.613281 2.707031 14.789062 2.777344 14.953125 C 2.84375 15.121094 2.941406 15.265625 3.070312 15.394531 L 12.261719 24.582031 C 12.386719 24.710938 12.535156 24.808594 12.699219 24.875 C 12.867188 24.945312 13.039062 24.980469 13.21875 24.980469 C 13.398438 24.980469 13.570312 24.945312 13.738281 24.875 C 13.902344 24.808594 14.050781 24.710938 14.175781 24.582031 L 23.324219 15.449219 C 23.453125 15.324219 23.550781 15.175781 23.617188 15.007812 C 23.6875 14.84375 23.722656 14.671875 23.722656 14.492188 C 23.722656 14.3125 23.6875 14.136719 23.617188 13.972656 C 23.550781 13.804688 23.453125 13.660156 23.324219 13.53125 " fill-opacity="1" fill-rule="nonzero"/></g><g fill="#efefef" fill-opacity="1"><g transform="translate(30.855337, 21.860532)"><g><path d="M 11.1875 -7.578125 L 14.8125 -7.578125 L 14.8125 -1.5625 C 13.988281 -0.957031 13.035156 -0.492188 11.953125 -0.171875 C 10.867188 0.140625 9.789062 0.296875 8.71875 0.296875 C 7.195312 0.296875 5.828125 -0.0234375 4.609375 -0.671875 C 3.390625 -1.316406 2.429688 -2.210938 1.734375 -3.359375 C 1.046875 -4.503906 0.703125 -5.804688 0.703125 -7.265625 C 0.703125 -8.710938 1.046875 -10.007812 1.734375 -11.15625 C 2.429688 -12.3125 3.394531 -13.207031 4.625 -13.84375 C 5.851562 -14.488281 7.242188 -14.8125 8.796875 -14.8125 C 10.148438 -14.8125 11.363281 -14.582031 12.4375 -14.125 C 13.519531 -13.675781 14.421875 -13.019531 15.140625 -12.15625 L 12.53125 -9.796875 C 11.550781 -10.867188 10.375 -11.40625 9 -11.40625 C 7.757812 -11.40625 6.757812 -11.03125 6 -10.28125 C 5.238281 -9.53125 4.859375 -8.523438 4.859375 -7.265625 C 4.859375 -6.460938 5.03125 -5.742188 5.375 -5.109375 C 5.71875 -4.484375 6.203125 -3.992188 6.828125 -3.640625 C 7.453125 -3.285156 8.164062 -3.109375 8.96875 -3.109375 C 9.75 -3.109375 10.488281 -3.269531 11.1875 -3.59375 Z M 11.1875 -7.578125 "/></g></g></g><g fill="#efefef" fill-opacity="1"><g transform="translate(46.061915, 21.860532)"><g><path d="M 1.265625 -11.25 L 5.203125 -11.25 L 5.203125 0 L 1.265625 0 Z M 3.25 -12.484375 C 2.53125 -12.484375 1.945312 -12.679688 1.5 -13.078125 C 1.0625 -13.484375 0.84375 -13.988281 0.84375 -14.59375 C 0.84375 -15.1875 1.0625 -15.679688 1.5 -16.078125 C 1.945312 -16.484375 2.53125 -16.6875 3.25 -16.6875 C 3.96875 -16.6875 4.546875 -16.492188 4.984375 -16.109375 C 5.429688 -15.734375 5.65625 -15.25 5.65625 -14.65625 C 5.65625 -14.03125 5.429688 -13.507812 4.984375 -13.09375 C 4.546875 -12.6875 3.96875 -12.484375 3.25 -12.484375 Z M 3.25 -12.484375 "/></g></g></g><g fill="#efefef" fill-opacity="1"><g transform="translate(51.787663, 21.860532)"><g><path d="M 9.03125 -0.453125 C 8.695312 -0.242188 8.289062 -0.0859375 7.8125 0.015625 C 7.332031 0.128906 6.820312 0.1875 6.28125 0.1875 C 4.820312 0.1875 3.695312 -0.171875 2.90625 -0.890625 C 2.113281 -1.609375 1.71875 -2.679688 1.71875 -4.109375 L 1.71875 -7.890625 L 0.078125 -7.890625 L 0.078125 -10.828125 L 1.71875 -10.828125 L 1.71875 -13.75 L 5.671875 -13.75 L 5.671875 -10.828125 L 8.234375 -10.828125 L 8.234375 -7.890625 L 5.671875 -7.890625 L 5.671875 -4.15625 C 5.671875 -3.75 5.773438 -3.429688 5.984375 -3.203125 C 6.203125 -2.972656 6.488281 -2.859375 6.84375 -2.859375 C 7.300781 -2.859375 7.703125 -2.976562 8.046875 -3.21875 Z M 9.03125 -0.453125 "/></g></g></g><g fill="#f03c2e" fill-opacity="1"><g transform="translate(60.293905, 21.860532)"><g><path d="M 14.5625 0 L 14.53125 -7.703125 L 10.796875 -1.4375 L 8.96875 -1.4375 L 5.25 -7.484375 L 5.25 0 L 1.453125 0 L 1.453125 -14.53125 L 4.828125 -14.53125 L 9.9375 -6.140625 L 14.921875 -14.53125 L 18.296875 -14.53125 L 18.34375 0 Z M 14.5625 0 "/></g></g></g><g fill="#efefef" fill-opacity="1"><g transform="translate(79.318344, 21.860532)"><g><path d="M 12.765625 -5.609375 C 12.765625 -5.578125 12.742188 -5.25 12.703125 -4.625 L 4.53125 -4.625 C 4.6875 -4.039062 5.003906 -3.59375 5.484375 -3.28125 C 5.960938 -2.976562 6.5625 -2.828125 7.28125 -2.828125 C 7.820312 -2.828125 8.289062 -2.898438 8.6875 -3.046875 C 9.082031 -3.203125 9.476562 -3.453125 9.875 -3.796875 L 11.953125 -1.640625 C 10.859375 -0.421875 9.257812 0.1875 7.15625 0.1875 C 5.84375 0.1875 4.6875 -0.0625 3.6875 -0.5625 C 2.695312 -1.0625 1.925781 -1.753906 1.375 -2.640625 C 0.832031 -3.523438 0.5625 -4.523438 0.5625 -5.640625 C 0.5625 -6.742188 0.828125 -7.734375 1.359375 -8.609375 C 1.890625 -9.492188 2.625 -10.1875 3.5625 -10.6875 C 4.507812 -11.1875 5.570312 -11.4375 6.75 -11.4375 C 7.863281 -11.4375 8.875 -11.203125 9.78125 -10.734375 C 10.695312 -10.273438 11.421875 -9.601562 11.953125 -8.71875 C 12.492188 -7.84375 12.765625 -6.804688 12.765625 -5.609375 Z M 6.765625 -8.625 C 6.148438 -8.625 5.640625 -8.453125 5.234375 -8.109375 C 4.828125 -7.765625 4.570312 -7.296875 4.46875 -6.703125 L 9.0625 -6.703125 C 8.957031 -7.296875 8.695312 -7.765625 8.28125 -8.109375 C 7.875 -8.453125 7.367188 -8.625 6.765625 -8.625 Z M 6.765625 -8.625 "/></g></g></g><path fill="#f03c2e" d="M 23.832031 20.0625 L 22.988281 19.527344 C 22.933594 19.492188 22.863281 19.511719 22.824219 19.566406 L 21.132812 22.277344 C 21.09375 22.335938 21.113281 22.402344 21.171875 22.441406 L 22.011719 22.972656 C 22.070312 23.011719 22.136719 22.992188 22.175781 22.9375 L 23.871094 20.226562 C 23.910156 20.167969 23.890625 20.089844 23.832031 20.0625 Z M 23.832031 20.0625 " fill-opacity="1" fill-rule="nonzero"/><path fill="#f03c2e" d="M 21.839844 23.101562 L 21.113281 22.644531 C 21.035156 22.597656 20.9375 22.644531 20.929688 22.734375 L 20.839844 23.679688 C 20.832031 23.777344 20.9375 23.84375 21.015625 23.796875 L 21.828125 23.304688 C 21.914062 23.253906 21.914062 23.148438 21.839844 23.101562 Z M 21.839844 23.101562 " fill-opacity="1" fill-rule="nonzero"/><g clip-path="url(#a5ef12656b)"><path fill="#f03c2e" d="M 27.730469 15.445312 L 27.210938 15.117188 L 27.460938 14.710938 C 27.675781 14.363281 27.578125 13.90625 27.230469 13.695312 C 26.878906 13.480469 26.425781 13.578125 26.210938 13.925781 L 22.980469 19.09375 C 22.941406 19.152344 22.960938 19.21875 23.019531 19.257812 L 24.074219 19.917969 C 24.132812 19.953125 24.199219 19.9375 24.238281 19.878906 L 27.035156 15.417969 L 27.414062 15.648438 L 26.125 17.699219 C 26.078125 17.789062 26.097656 17.894531 26.183594 17.941406 C 26.269531 17.992188 26.378906 17.972656 26.425781 17.882812 L 27.800781 15.675781 C 27.847656 15.601562 27.820312 15.492188 27.730469 15.445312 Z M 27.730469 15.445312 " fill-opacity="1" fill-rule="nonzero"/></g><g clip-path="url(#f7b40c2085)"><path fill="#f03c2e" d="M 16.207031 25.09375 C 16.089844 25.09375 15.984375 25.066406 15.878906 24.976562 C 15.238281 24.492188 13.496094 24.8125 13.476562 24.824219 C 13.398438 24.84375 13.320312 24.785156 13.304688 24.707031 C 13.285156 24.628906 13.339844 24.550781 13.417969 24.53125 C 13.496094 24.511719 15.304688 24.183594 16.050781 24.746094 C 16.339844 24.96875 16.855469 24.40625 17.230469 24 C 17.550781 23.652344 17.746094 23.449219 17.9375 23.496094 C 17.988281 23.507812 18.074219 23.554688 18.113281 23.691406 C 18.238281 24.183594 18.414062 24.453125 18.507812 24.464844 C 18.558594 24.472656 18.664062 24.398438 18.789062 24.15625 C 19.011719 23.730469 19.1875 23.554688 19.390625 23.574219 C 19.660156 23.601562 19.796875 23.980469 19.960938 24.511719 C 20 24.628906 20.039062 24.6875 20.066406 24.6875 C 20.191406 24.695312 20.472656 24.347656 20.648438 24.027344 C 20.6875 23.960938 20.773438 23.933594 20.851562 23.972656 C 20.917969 24.011719 20.949219 24.097656 20.910156 24.175781 C 20.804688 24.378906 20.425781 25.027344 20.046875 24.988281 C 19.882812 24.96875 19.757812 24.84375 19.691406 24.601562 C 19.542969 24.136719 19.4375 23.894531 19.371094 23.863281 C 19.371094 23.863281 19.273438 23.882812 19.0625 24.289062 C 18.992188 24.417969 18.800781 24.792969 18.488281 24.753906 C 18.160156 24.714844 17.957031 24.234375 17.851562 23.808594 C 17.753906 23.875 17.589844 24.058594 17.464844 24.195312 C 17.097656 24.582031 16.640625 25.085938 16.207031 25.09375 Z M 16.207031 25.09375 " fill-opacity="1" fill-rule="nonzero"/></g></svg>