<svg xmlns="http://www.w3.org/2000/svg" xmlns:xlink="http://www.w3.org/1999/xlink" width="40" zoomAndPan="magnify" viewBox="0 0 30 30.000001" height="40" preserveAspectRatio="xMidYMid meet" version="1.0"><defs><clipPath id="fff146ee4a"><path d="M 0.484375 0 L 28.789062 0 L 28.789062 29.03125 L 0.484375 29.03125 Z M 0.484375 0 " clip-rule="nonzero"/></clipPath></defs><g clip-path="url(#fff146ee4a)"><path fill="#ffffff" d="M 16.199219 21.671875 L 15.128906 21.671875 C 14.886719 21.671875 14.691406 21.867188 14.691406 22.109375 L 14.691406 24.59375 C 13.976562 24.558594 13.277344 24.425781 12.605469 24.203125 C 10.320312 23.449219 8.453125 21.667969 7.597656 19.417969 C 7.640625 19.113281 7.71875 19.078125 7.761719 19.058594 C 7.777344 19.050781 7.792969 19.042969 7.8125 19.03125 L 8.929688 19.679688 C 9.867188 20.21875 10.996094 19.355469 10.71875 18.308594 C 10.632812 17.992188 10.433594 17.730469 10.15625 17.570312 L 7.113281 15.777344 C 7.207031 14.769531 7.488281 13.8125 7.945312 12.914062 L 9.71875 13.941406 L 9.402344 14.484375 C 8.917969 15.320312 9.207031 16.390625 10.042969 16.875 C 10.875 17.359375 11.945312 17.070312 12.429688 16.234375 L 12.746094 15.6875 L 14.691406 16.808594 L 14.691406 19.492188 C 14.691406 19.730469 14.886719 19.929688 15.128906 19.929688 L 16.199219 19.929688 C 16.683594 19.929688 17.070312 20.320312 17.070312 20.800781 C 17.070312 21.28125 16.679688 21.671875 16.199219 21.671875 Z M 10.753906 24.78125 C 10.921875 24.878906 11.421875 24.875 11.699219 24.800781 C 9.421875 23.847656 7.59375 21.953125 6.742188 19.625 C 6.71875 19.5625 6.710938 19.496094 6.714844 19.429688 C 6.789062 18.640625 7.117188 18.394531 7.390625 18.265625 C 7.398438 18.261719 7.40625 18.257812 7.410156 18.257812 C 7.660156 18.109375 7.960938 18.109375 8.214844 18.253906 L 9.371094 18.921875 C 9.535156 19.019531 9.746094 18.960938 9.839844 18.796875 C 9.933594 18.632812 9.878906 18.421875 9.714844 18.328125 L 5.304688 15.730469 L 3.636719 18.621094 L 4.332031 19.023438 C 4.625 19.1875 4.847656 19.394531 5.042969 19.667969 C 6.96875 22.371094 7.992188 23.183594 10.753906 24.78125 Z M 2.550781 18.75 L 1.503906 18.144531 L 3.8125 14.144531 L 4.859375 14.746094 Z M 4.902344 14.671875 Z M 16.199219 19.050781 L 15.566406 19.050781 L 15.566406 16.554688 C 15.566406 16.398438 15.480469 16.253906 15.347656 16.175781 L 12.804688 14.707031 C 12.59375 14.589844 12.328125 14.660156 12.207031 14.871094 L 11.671875 15.796875 C 11.285156 16.464844 10.277344 16.339844 10.074219 15.585938 C 10.015625 15.359375 10.042969 15.125 10.160156 14.925781 L 10.695312 13.996094 C 10.816406 13.789062 10.746094 13.519531 10.535156 13.398438 L 7.992188 11.933594 C 7.785156 11.808594 7.515625 11.878906 7.394531 12.089844 C 6.816406 13.085938 6.445312 14.160156 6.289062 15.289062 L 5.726562 14.960938 C 5.84375 14.617188 5.703125 14.222656 5.375 14.03125 L 4.175781 13.339844 C 3.796875 13.125 3.316406 13.253906 3.097656 13.628906 L 0.699219 17.78125 C 0.484375 18.160156 0.613281 18.640625 0.988281 18.859375 L 2.1875 19.550781 C 2.519531 19.742188 2.9375 19.664062 3.1875 19.371094 L 3.894531 19.777344 C 4.078125 19.886719 4.207031 20.003906 4.332031 20.175781 C 6.335938 22.992188 7.46875 23.898438 10.316406 25.539062 C 10.875 25.859375 12.183594 25.808594 12.578125 25.226562 C 12.601562 25.195312 12.621094 25.164062 12.644531 25.132812 C 13.445312 25.367188 14.28125 25.484375 15.128906 25.484375 C 15.371094 25.484375 15.566406 25.289062 15.566406 25.046875 L 15.566406 22.546875 L 16.199219 22.546875 C 17.164062 22.546875 17.945312 21.765625 17.945312 20.800781 C 17.945312 19.835938 17.160156 19.050781 16.199219 19.050781 Z M 12.132812 7.613281 C 11.601562 8.085938 11.140625 8.625 10.75 9.222656 L 12.902344 10.464844 C 13.117188 10.585938 13.183594 10.859375 13.066406 11.066406 L 12.527344 11.992188 C 12.289062 12.40625 12.433594 12.941406 12.847656 13.183594 C 13.265625 13.421875 13.800781 13.28125 14.039062 12.863281 L 14.574219 11.933594 C 14.695312 11.726562 14.964844 11.65625 15.171875 11.777344 L 17.496094 13.117188 L 19.441406 11.996094 L 19.125 11.445312 C 18.640625 10.609375 18.929688 9.539062 19.761719 9.058594 C 20.589844 8.578125 21.664062 8.859375 22.152344 9.699219 L 22.46875 10.246094 L 24.242188 9.222656 C 23.695312 8.378906 23 7.65625 22.175781 7.070312 L 19.105469 8.808594 C 18.515625 9.140625 17.78125 8.945312 17.441406 8.359375 C 17.105469 7.777344 17.308594 7.03125 17.886719 6.695312 L 19.007812 6.046875 C 19.007812 6.027344 19.011719 6.007812 19.011719 5.992188 C 19.015625 5.945312 19.023438 5.855469 18.78125 5.671875 C 16.496094 5.304688 14.113281 5.960938 12.335938 7.441406 Z M 12.558594 5.722656 C 15.320312 4.125 16.539062 3.648438 19.84375 3.332031 C 20.175781 3.304688 20.464844 3.210938 20.757812 3.039062 L 21.457031 2.636719 L 23.125 5.527344 L 18.667969 8.050781 C 18.503906 8.140625 18.292969 8.085938 18.199219 7.921875 C 18.105469 7.757812 18.160156 7.546875 18.324219 7.453125 L 19.480469 6.785156 C 19.734375 6.640625 19.882812 6.382812 19.882812 6.089844 C 19.882812 6.082031 19.882812 6.074219 19.882812 6.070312 C 19.910156 5.765625 19.855469 5.355469 19.210938 4.898438 C 19.15625 4.859375 19.097656 4.839844 19.03125 4.824219 C 16.585938 4.398438 14.035156 5.035156 12.070312 6.53125 C 12.144531 6.25 12.390625 5.820312 12.558594 5.722656 Z M 22.933594 1.03125 L 25.242188 5.03125 L 24.195312 5.636719 L 21.886719 1.632812 Z M 9.925781 9.757812 L 12.085938 11.003906 L 11.769531 11.554688 C 11.089844 12.734375 11.96875 14.175781 13.277344 14.175781 C 13.902344 14.175781 14.484375 13.839844 14.796875 13.300781 L 15.113281 12.753906 L 17.277344 14.003906 C 17.414062 14.078125 17.578125 14.078125 17.714844 14.003906 L 20.257812 12.535156 C 20.464844 12.410156 20.539062 12.144531 20.417969 11.9375 L 19.882812 11.007812 C 19.640625 10.59375 19.785156 10.058594 20.199219 9.816406 C 20.617188 9.578125 21.152344 9.722656 21.390625 10.132812 L 21.929688 11.066406 C 22.050781 11.273438 22.316406 11.34375 22.527344 11.222656 L 25.070312 9.753906 C 25.277344 9.636719 25.347656 9.367188 25.230469 9.15625 C 24.65625 8.160156 23.910156 7.304688 23.011719 6.597656 L 23.578125 6.277344 C 23.828125 6.558594 24.230469 6.625 24.558594 6.4375 L 25.757812 5.746094 C 26.132812 5.527344 26.261719 5.046875 26.042969 4.667969 L 23.644531 0.515625 C 23.429688 0.140625 22.945312 0.0117188 22.570312 0.226562 L 21.371094 0.917969 C 21.035156 1.113281 20.898438 1.519531 21.027344 1.875 L 20.320312 2.285156 C 20.136719 2.386719 19.96875 2.441406 19.757812 2.460938 C 16.316406 2.789062 14.96875 3.320312 12.121094 4.964844 C 11.578125 5.277344 10.949219 6.441406 11.261719 7.082031 C 11.277344 7.117188 11.292969 7.148438 11.308594 7.183594 C 10.707031 7.761719 10.1875 8.425781 9.765625 9.160156 C 9.644531 9.367188 9.714844 9.636719 9.925781 9.757812 Z M 27.039062 28.144531 L 22.417969 28.144531 L 22.417969 26.9375 L 27.039062 26.9375 Z M 19.289062 25.183594 L 19.289062 23.132812 L 19.921875 23.132812 C 20.886719 23.132812 21.671875 22.347656 21.671875 21.382812 C 21.671875 20.421875 20.886719 19.636719 19.921875 19.636719 L 19.289062 19.636719 L 19.289062 17.394531 L 21.613281 16.050781 C 21.824219 15.929688 21.890625 15.660156 21.773438 15.453125 L 21.238281 14.527344 C 20.855469 13.871094 21.457031 13.042969 22.21875 13.25 C 22.445312 13.308594 22.632812 13.453125 22.746094 13.65625 L 23.285156 14.582031 C 23.402344 14.792969 23.671875 14.863281 23.882812 14.742188 L 26.035156 13.5 C 26.371094 14.160156 26.609375 14.859375 26.753906 15.585938 C 27.210938 17.914062 26.597656 20.386719 25.09375 22.230469 C 24.8125 22.34375 24.742188 22.296875 24.703125 22.265625 C 24.6875 22.257812 24.671875 22.246094 24.65625 22.238281 L 24.65625 20.945312 C 24.65625 20.269531 24.109375 19.722656 23.4375 19.722656 C 22.765625 19.722656 22.21875 20.269531 22.21875 20.941406 L 22.1875 24.46875 C 21.265625 24.890625 20.292969 25.128906 19.289062 25.183594 Z M 27.707031 15.988281 C 28.019531 18.433594 27.292969 20.96875 25.703125 22.867188 C 25.660156 22.917969 25.609375 22.960938 25.550781 22.984375 C 24.828125 23.316406 24.449219 23.160156 24.199219 22.984375 C 24.195312 22.976562 24.1875 22.976562 24.183594 22.976562 C 23.929688 22.828125 23.78125 22.570312 23.78125 22.277344 L 23.78125 20.945312 C 23.78125 20.753906 23.625 20.601562 23.4375 20.601562 C 23.246094 20.601562 23.09375 20.753906 23.09375 20.945312 L 23.046875 26.058594 L 26.382812 26.058594 L 26.382812 25.253906 C 26.382812 24.917969 26.449219 24.621094 26.589844 24.316406 C 27.964844 21.300781 28.160156 20.003906 28.160156 16.8125 C 28.160156 16.621094 27.910156 16.1875 27.707031 15.988281 Z M 27.261719 26.074219 C 27.632812 26.136719 27.914062 26.457031 27.914062 26.851562 L 27.914062 28.234375 C 27.914062 28.664062 27.5625 29.019531 27.128906 29.019531 L 22.332031 29.019531 C 21.898438 29.019531 21.542969 28.664062 21.542969 28.234375 L 21.542969 26.851562 C 21.542969 26.46875 21.8125 26.152344 22.171875 26.078125 L 22.175781 25.425781 C 21.121094 25.855469 20.007812 26.070312 18.859375 26.070312 C 18.613281 26.070312 18.414062 25.875 18.414062 25.632812 L 18.414062 22.695312 C 18.414062 22.453125 18.609375 22.257812 18.851562 22.257812 L 19.921875 22.257812 C 20.402344 22.257812 20.792969 21.867188 20.792969 21.382812 C 20.792969 20.902344 20.402344 20.511719 19.921875 20.511719 L 18.851562 20.511719 C 18.609375 20.511719 18.414062 20.316406 18.414062 20.074219 L 18.414062 17.140625 C 18.414062 16.984375 18.496094 16.839844 18.632812 16.757812 L 20.796875 15.511719 L 20.476562 14.960938 C 19.996094 14.128906 20.285156 13.058594 21.117188 12.578125 C 21.953125 12.097656 23.023438 12.382812 23.507812 13.214844 L 23.824219 13.765625 L 25.984375 12.515625 C 26.195312 12.394531 26.460938 12.46875 26.582031 12.675781 C 27.007812 13.40625 27.320312 14.191406 27.523438 15.003906 C 27.558594 15.007812 27.597656 15.011719 27.632812 15.011719 C 28.34375 15.0625 29.039062 16.1875 29.039062 16.8125 C 29.039062 20.101562 28.820312 21.535156 27.386719 24.679688 C 27.296875 24.871094 27.261719 25.046875 27.261719 25.253906 Z M 27.261719 26.074219 " fill-opacity="1" fill-rule="evenodd"/></g></svg>